<!DOCTYPE svg PUBLIC "-//W3C//DTD SVG 20010904//EN" "http://www.w3.org/TR/2001/REC-SVG-20010904/DTD/svg10.dtd">
<svg version="1.0" xmlns="http://www.w3.org/2000/svg" width="1569px" height="303px" viewBox="0 0 12000 2320" preserveAspectRatio="xMidYMid meet">
<g id="layer101" fill="#f1b605" stroke="none">
<path d="M5083 2155 c-9 -25 1 -30 87 -40 14 -1 25 -4 25 -5 0 -1 11 -4 25 -6 14 -1 39 -5 55 -9 17 -3 39 -6 50 -6 45 0 45 2 45 -432 l0 -411 -50 -46 c-27 -25 -50 -51 -50 -58 0 -6 -16 -23 -35 -38 -19 -14 -35 -32 -35 -39 0 -7 -20 -29 -45 -49 -25 -21 -45 -43 -45 -50 0 -7 -18 -27 -40 -45 -22 -17 -40 -38 -40 -45 0 -8 -20 -30 -45 -50 -25 -21 -45 -43 -45 -50 0 -8 -16 -26 -35 -40 -19 -15 -35 -33 -35 -41 0 -8 -16 -26 -35 -41 -19 -14 -35 -32 -35 -38 0 -6 -20 -29 -45 -50 -25 -22 -45 -45 -45 -52 0 -7 -18 -27 -40 -44 -78 -62 -95 -60 499 -60 l540 0 30 -54 c17 -29 31 -60 31 -68 0 -8 9 -23 20 -33 11 -10 20 -26 20 -35 0 -10 6 -20 14 -23 8 -3 20 -22 27 -41 7 -20 16 -36 20 -36 20 0 18 24 -5 63 -15 24 -26 50 -26 57 0 7 -6 18 -14 24 -7 6 -30 41 -51 79 l-37 67 226 0 c255 0 258 1 181 64 -25 21 -45 43 -45 50 0 7 -18 27 -40 45 -22 17 -40 37 -40 43 0 6 -20 28 -45 50 -25 22 -45 45 -45 52 0 7 -13 22 -30 34 -16 13 -30 29 -30 36 0 8 -18 29 -40 46 -22 17 -40 38 -40 45 0 8 -20 30 -45 51 -25 20 -45 42 -45 50 0 7 -16 25 -35 40 -19 14 -35 32 -35 40 0 7 -20 29 -45 50 -25 20 -45 41 -45 46 0 5 -20 29 -45 54 l-45 43 0 415 c0 462 -6 422 69 425 18 1 42 6 52 12 11 5 24 7 30 4 5 -4 16 -2 23 4 7 6 22 10 32 9 11 -1 38 2 62 6 31 7 42 13 42 27 0 18 -14 19 -335 19 -293 0 -336 -2 -342 -15z m366 -1045 c40 -34 38 -45 -6 -29 -26 8 -38 7 -72 -11 -23 -11 -41 -16 -41 -10 0 11 70 80 80 80 3 -1 20 -14 39 -30z m-139 -88 c0 -5 -3 -12 -7 -15 -10 -11 -6 -92 6 -114 16 -32 91 -64 129 -57 29 6 33 3 47 -27 8 -19 23 -47 35 -64 11 -16 20 -38 20 -47 0 -10 8 -25 18 -35 31 -30 76 -119 69 -136 -6 -15 -41 -17 -379 -17 -234 0 -379 4 -388 10 -12 9 -9 16 23 43 20 17 37 37 37 44 0 7 16 24 35 39 19 14 35 32 35 40 0 7 20 29 45 50 25 20 45 42 45 49 0 7 20 29 45 49 25 21 45 43 45 50 0 8 16 26 35 40 19 15 35 32 35 38 0 14 50 68 62 68 4 0 8 -4 8 -8z m252 -29 c10 -9 18 -22 18 -28 0 -7 16 -25 35 -39 19 -15 35 -33 35 -41 0 -7 20 -30 45 -51 25 -20 45 -42 45 -49 0 -6 18 -26 40 -44 22 -17 40 -38 40 -46 0 -8 14 -24 30 -37 17 -12 30 -27 30 -34 0 -7 21 -31 48 -53 63 -55 51 -61 -115 -60 l-133 1 -30 53 c-16 29 -30 60 -30 69 0 9 -9 24 -20 33 -11 10 -20 23 -20 30 0 7 -9 22 -20 33 -11 11 -23 34 -27 50 -3 17 -9 30 -14 30 -5 0 -13 9 -19 21 -9 16 -8 24 4 38 9 10 16 25 16 34 0 9 5 19 10 22 14 9 13 58 -2 73 -19 19 12 15 34 -5z"/>
</g>
<g id="layer102" fill="#fdfdfd" stroke="none">
<path d="M6890 1611 l-75 -6 0 -520 0 -520 154 -3 c177 -3 234 8 302 61 61 47 84 96 83 182 -1 78 -28 145 -83 204 -17 18 -31 34 -31 36 0 2 19 14 43 28 59 35 120 104 142 160 23 62 17 174 -13 233 -28 56 -90 107 -155 129 -58 19 -238 27 -367 16z m336 -119 c71 -36 104 -88 104 -162 0 -134 -144 -230 -345 -230 l-65 0 0 204 0 205 43 4 c92 10 223 -1 263 -21z m-51 -535 c76 -78 97 -185 48 -239 -40 -44 -86 -58 -198 -58 l-105 0 0 170 0 169 68 4 c37 2 82 4 101 5 30 2 42 -5 86 -51z"/>
<path d="M8329 1606 c-81 -22 -142 -79 -273 -258 l-79 -108 -93 0 -94 0 -2 183 -3 182 -52 3 -53 3 0 -474 0 -474 61 -7 c317 -33 478 57 479 265 0 36 -5 81 -12 100 -14 42 -57 107 -98 148 l-31 31 90 117 c102 135 129 163 188 193 72 37 79 31 140 -115 30 -71 74 -177 98 -235 24 -58 82 -195 127 -305 l83 -200 35 -3 35 -3 198 474 c108 260 197 476 197 480 0 5 -25 7 -56 5 l-57 -3 -61 -147 c-34 -81 -66 -152 -72 -158 -7 -7 -73 -10 -193 -8 l-183 3 -63 155 -63 155 -44 7 c-62 10 -97 8 -149 -6z m651 -417 c0 -12 -116 -296 -130 -319 -6 -10 -12 -11 -19 -5 -12 13 -131 304 -131 321 0 11 28 14 140 14 92 0 140 -4 140 -11z m-992 -53 c73 -39 123 -124 123 -212 0 -120 -74 -174 -237 -174 l-84 0 0 194 c0 222 -10 203 103 205 41 1 79 -5 95 -13z"/>
<path d="M9633 1602 c-80 -28 -130 -67 -173 -133 -63 -97 -70 -149 -70 -503 l0 -306 50 0 50 0 0 258 c0 357 13 447 76 521 51 60 96 76 219 76 123 0 168 -16 219 -76 63 -74 76 -164 76 -521 l0 -258 50 0 50 0 0 308 c0 381 -9 431 -97 539 -21 27 -58 54 -101 75 -62 31 -74 33 -182 36 -91 2 -126 -1 -167 -16z"/>
<path d="M11819 1606 c-81 -22 -139 -77 -274 -258 l-79 -108 -93 0 -93 0 -2 183 -3 182 -52 3 -53 3 0 -475 0 -474 87 -7 c241 -21 378 29 433 156 18 43 21 66 18 128 -4 91 -23 133 -91 207 l-49 54 74 97 c113 151 174 208 241 228 57 16 57 17 57 56 0 39 0 39 -37 38 -21 0 -59 -6 -84 -13z m-340 -470 c36 -19 90 -80 107 -122 22 -54 18 -145 -8 -184 -37 -55 -88 -74 -200 -78 l-98 -4 0 195 c0 223 -10 204 103 206 42 1 79 -5 96 -13z"/>
<path d="M80 1085 l0 -526 53 3 52 3 3 218 2 217 325 0 325 0 0 -221 0 -220 53 3 52 3 0 520 0 520 -52 3 -53 3 0 -250 0 -251 -22 -5 c-13 -3 -158 -4 -323 -3 l-300 3 -5 250 -5 250 -52 3 -53 3 0 -526z"/>
<path d="M1103 1598 c27 -69 351 -847 371 -891 22 -51 28 -57 55 -57 35 0 39 7 94 140 19 47 83 200 142 340 59 140 125 298 147 350 60 142 60 132 -6 128 l-57 -3 -28 -65 c-15 -36 -43 -101 -61 -145 -19 -44 -38 -86 -43 -93 -7 -9 -54 -12 -194 -10 l-184 3 -66 158 -66 157 -55 0 c-39 0 -53 -3 -49 -12z m562 -408 c6 -10 -126 -340 -136 -340 -4 0 -18 28 -32 63 -14 34 -46 110 -70 169 -25 59 -42 109 -39 112 10 10 271 6 277 -4z"/>
<path d="M2100 1136 l0 -474 97 -7 c116 -9 237 -2 278 16 113 49 167 128 167 246 1 80 -16 125 -67 182 -69 76 -200 131 -314 131 l-51 0 -2 188 -3 187 -52 3 -53 3 0 -475z m199 4 c111 -19 211 -88 227 -158 3 -15 7 -33 10 -40 2 -7 -1 -35 -7 -62 -8 -36 -20 -57 -44 -79 -44 -39 -91 -51 -192 -51 l-83 0 0 200 c0 153 3 200 13 200 6 0 41 -5 76 -10z"/>
<path d="M2847 1603 c-4 -3 -7 -215 -7 -470 0 -432 1 -464 18 -471 9 -3 87 -7 172 -7 150 0 157 1 212 28 71 35 114 85 135 156 56 194 -100 370 -344 388 l-73 6 0 -41 0 -41 48 -6 c118 -17 196 -56 241 -120 34 -50 38 -129 9 -184 -34 -66 -78 -85 -205 -89 l-103 -4 0 431 0 431 -48 0 c-27 0 -52 -3 -55 -7z"/>
<path d="M3780 1439 l0 -171 -175 -299 c-96 -164 -175 -301 -175 -304 0 -3 27 -5 59 -5 l59 0 140 238 c77 130 144 236 148 236 5 -1 70 -107 145 -235 l137 -234 62 -3 63 -3 -23 38 c-12 21 -88 151 -168 288 -79 138 -151 259 -158 270 -11 14 -14 62 -14 187 l0 168 -50 0 -50 0 0 -171z"/>
<path d="M10470 1135 l0 -475 235 0 235 0 0 45 0 45 -180 0 -180 0 0 145 0 145 160 0 160 0 0 50 0 50 -160 0 -160 0 0 185 0 185 185 0 185 0 0 50 0 50 -240 0 -240 0 0 -475z"/>
</g>


</svg>