<!DOCTYPE svg PUBLIC "-//W3C//DTD SVG 20010904//EN" "http://www.w3.org/TR/2001/REC-SVG-20010904/DTD/svg10.dtd">
<svg version="1.0" xmlns="http://www.w3.org/2000/svg" width="1689px" height="399px" viewBox="0 0 12000 2830" preserveAspectRatio="xMidYMid meet">
<g id="layer101" fill="#0a0a0a" stroke="none">
<path d="M9500 1827 c-69 -16 -105 -36 -152 -81 -89 -86 -111 -201 -106 -556 l3 -225 29 -3 c15 -2 39 -1 52 2 l24 6 0 284 c0 301 5 343 50 406 33 47 93 73 180 78 93 5 149 -9 197 -51 73 -65 77 -85 83 -422 l5 -300 45 0 45 0 3 270 c3 279 -2 336 -39 422 -26 61 -103 134 -164 156 -67 23 -187 30 -255 14z"/>
<path d="M817 1824 c-4 -4 -7 -218 -7 -476 l0 -468 50 0 50 0 2 198 3 197 285 0 285 0 3 -197 2 -198 50 0 50 0 0 476 0 475 -47 -3 -48 -3 -3 -228 -2 -227 -288 2 -287 3 -5 225 -5 225 -40 3 c-23 2 -44 0 -48 -4z"/>
<path d="M1736 1821 c-4 -5 74 -201 171 -435 l177 -426 33 0 c23 0 36 6 40 18 4 9 84 202 179 427 94 226 170 413 167 418 -7 12 -91 8 -100 -5 -4 -7 -33 -71 -63 -143 l-56 -130 -169 0 -169 0 -56 130 c-30 72 -59 136 -63 143 -9 14 -83 17 -91 3z m504 -378 c0 -4 -28 -74 -62 -156 -43 -104 -64 -144 -70 -133 -10 18 -108 255 -115 279 -5 16 5 17 121 17 69 0 126 -3 126 -7z"/>
<path d="M2630 1401 l0 -428 46 -7 c70 -9 224 -7 264 4 61 17 127 66 152 112 35 66 33 177 -4 239 -55 94 -151 148 -279 156 l-79 6 0 -42 0 -41 43 0 c146 0 259 -102 242 -218 -13 -90 -92 -136 -223 -130 l-67 3 -3 388 -2 387 -45 0 -45 0 0 -429z"/>
<path d="M3296 1814 c-3 -9 -6 -200 -6 -425 0 -381 1 -410 18 -417 9 -4 82 -7 162 -7 130 0 149 2 186 22 56 30 111 94 125 145 46 173 -92 330 -303 345 l-78 6 0 158 c0 86 -3 164 -6 173 -4 11 -19 16 -49 16 -30 0 -45 -5 -49 -16z m237 -428 c54 -20 109 -60 130 -96 26 -43 25 -135 -1 -169 -35 -48 -78 -65 -174 -69 l-88 -4 0 176 0 176 48 0 c26 -1 64 -7 85 -14z"/>
<path d="M4140 1677 l0 -154 -160 -272 c-88 -150 -158 -277 -155 -282 9 -14 92 -11 105 4 7 6 67 106 135 221 108 183 125 206 135 190 6 -11 64 -109 129 -219 l117 -200 52 -3 c35 -2 52 1 52 9 0 6 -70 130 -155 275 l-154 263 -3 158 -3 158 -47 3 -48 3 0 -154z"/>
<path d="M6958 1823 l-28 -4 0 -470 0 -470 163 3 c151 3 166 5 211 28 27 14 63 42 79 63 26 31 32 49 35 103 5 78 -14 135 -64 195 -19 23 -34 42 -34 44 0 2 20 15 45 29 54 32 111 104 126 160 15 55 6 143 -20 194 -26 51 -87 97 -154 117 -48 14 -284 19 -359 8z m352 -113 c53 -27 80 -72 80 -133 0 -124 -92 -194 -267 -204 l-93 -6 0 181 0 181 43 4 c85 9 195 -2 237 -23z m-67 -461 c48 -40 77 -97 77 -151 0 -89 -61 -128 -200 -128 l-90 0 0 148 c0 82 3 152 7 155 3 4 43 7 87 7 76 0 84 -2 119 -31z"/>
<path d="M7717 1824 c-4 -4 -7 -198 -7 -430 l0 -423 56 -7 c83 -10 243 1 287 20 100 43 152 130 145 238 -5 75 -26 123 -83 186 l-43 48 65 84 c35 47 84 106 109 131 46 48 113 85 137 76 8 -3 38 -63 67 -134 29 -70 76 -184 105 -253 29 -69 79 -187 110 -262 57 -136 58 -138 89 -138 30 0 33 4 69 88 20 48 99 237 177 421 77 184 140 340 140 348 0 18 -84 18 -99 0 -6 -8 -35 -72 -64 -143 l-54 -129 -170 -3 -170 -2 -38 92 c-21 51 -48 117 -61 146 l-23 52 -78 0 c-132 -1 -173 -28 -308 -207 -50 -65 -94 -121 -100 -125 -5 -4 -45 -8 -87 -8 l-78 0 -2 168 -3 167 -40 3 c-23 2 -44 0 -48 -4z m1158 -391 c-45 -120 -121 -291 -126 -285 -9 12 -119 279 -119 291 0 7 41 11 126 11 116 0 126 -1 119 -17z m-870 -47 c62 -41 104 -139 91 -211 -9 -49 -59 -99 -111 -114 -22 -6 -70 -11 -107 -11 l-68 0 0 174 0 175 53 4 c72 6 115 1 142 -17z"/>
<path d="M10222 1398 l3 -433 205 0 205 0 0 45 0 45 -157 3 -158 3 0 124 0 125 145 0 145 0 0 45 0 45 -145 0 -145 0 0 165 0 165 166 0 165 0 -3 48 -3 47 -213 3 -212 2 2 -432z"/>
<path d="M10850 1401 l0 -430 46 -7 c79 -12 255 0 294 20 107 55 144 113 144 226 0 86 -13 117 -80 196 l-44 52 52 68 c94 126 147 181 193 203 25 12 54 21 65 21 17 0 20 7 20 40 l0 40 -47 0 c-63 0 -137 -36 -189 -91 -23 -24 -76 -90 -118 -147 l-77 -103 -82 3 -82 3 -3 168 -2 167 -45 0 -45 0 0 -429z m293 -16 c37 -24 79 -89 88 -137 24 -128 -62 -204 -221 -196 l-65 3 0 170 0 170 55 6 c73 9 113 4 143 -16z"/>
</g>
<g id="layer102" fill="#f3bb13" stroke="none">
<path d="M5202 2238 c3 -20 13 -24 77 -35 40 -6 97 -17 127 -23 l54 -11 0 -385 0 -385 -237 -266 c-402 -450 -443 -497 -443 -505 0 -5 226 -8 503 -8 l503 0 75 -132 c41 -72 80 -133 86 -136 33 -10 20 36 -41 145 l-66 118 212 5 211 5 -129 145 c-71 80 -227 255 -347 389 l-217 243 0 384 0 383 33 6 c17 3 77 14 132 24 89 15 100 20 103 39 l3 22 -321 0 -321 0 3 -22z m346 -965 c14 -22 14 -23 -21 -23 -19 0 -44 -3 -54 -7 -14 -6 -13 -1 7 25 28 36 46 37 68 5z m-145 -117 c-14 -69 45 -136 119 -136 l37 0 81 -142 80 -143 -174 -3 c-96 -1 -257 -1 -357 0 l-183 3 198 223 c109 122 199 222 201 222 1 0 0 -11 -2 -24z m363 -128 c65 -73 152 -170 192 -215 l74 -83 -129 0 -129 0 -86 154 -87 153 19 39 c11 21 20 49 20 61 0 13 2 23 4 23 2 0 57 -60 122 -132z"/>
<path d="M9573 1833 c15 -2 39 -2 55 0 15 2 2 4 -28 4 -30 0 -43 -2 -27 -4z"/>
<path d="M838 1823 c12 -2 32 -2 45 0 12 2 2 4 -23 4 -25 0 -35 -2 -22 -4z"/>
<path d="M1496 1822 c-2 -4 12 -6 32 -4 62 6 69 10 20 11 -26 0 -49 -3 -52 -7z"/>
<path d="M1758 1823 c12 -2 32 -2 45 0 12 2 2 4 -23 4 -25 0 -35 -2 -22 -4z"/>
<path d="M2433 1823 c15 -2 37 -2 50 0 12 2 0 4 -28 4 -27 0 -38 -2 -22 -4z"/>
<path d="M2653 1823 c15 -2 37 -2 50 0 12 2 0 4 -28 4 -27 0 -38 -2 -22 -4z"/>
<path d="M3323 1823 c15 -2 37 -2 50 0 12 2 0 4 -28 4 -27 0 -38 -2 -22 -4z"/>
<path d="M4182 1823 l47 -4 4 -157 3 -157 -1 160 0 160 -50 1 -50 1 47 -4z"/>
<path d="M6998 1823 c12 -2 30 -2 40 0 9 3 -1 5 -23 4 -22 0 -30 -2 -17 -4z"/>
<path d="M7263 1823 c4 -3 10 -3 14 0 3 4 0 7 -7 7 -7 0 -10 -3 -7 -7z"/>
<path d="M7738 1823 c12 -2 32 -2 45 0 12 2 2 4 -23 4 -25 0 -35 -2 -22 -4z"/>
<path d="M8303 1823 c4 -3 10 -3 14 0 3 4 0 7 -7 7 -7 0 -10 -3 -7 -7z"/>
<path d="M8413 1823 c9 -2 25 -2 35 0 9 3 1 5 -18 5 -19 0 -27 -2 -17 -5z"/>
<path d="M9073 1823 c15 -2 37 -2 50 0 12 2 0 4 -28 4 -27 0 -38 -2 -22 -4z"/>
<path d="M9703 1823 c4 -3 10 -3 14 0 3 4 0 7 -7 7 -7 0 -10 -3 -7 -7z"/>
<path d="M10323 1823 c59 -2 155 -2 215 0 59 1 10 3 -108 3 -118 0 -167 -2 -107 -3z"/>
<path d="M10873 1823 c15 -2 37 -2 50 0 12 2 0 4 -28 4 -27 0 -38 -2 -22 -4z"/>
<path d="M11443 1823 c4 -3 10 -3 14 0 3 4 0 7 -7 7 -7 0 -10 -3 -7 -7z"/>
<path d="M3295 1395 c0 -231 1 -324 2 -207 2 117 2 306 0 420 -1 114 -2 18 -2 -213z"/>
<path d="M3394 1645 c0 -93 2 -133 3 -88 2 45 2 122 0 170 -1 48 -3 12 -3 -82z"/>
<path d="M8169 1743 l-34 -38 38 34 c34 33 42 41 34 41 -2 0 -19 -17 -38 -37z"/>
<path d="M9825 1770 c3 -5 8 -10 11 -10 3 0 2 5 -1 10 -3 6 -8 10 -11 10 -3 0 -2 -4 1 -10z"/>
<path d="M7430 1745 c13 -14 26 -25 28 -25 3 0 -5 11 -18 25 -13 14 -26 25 -28 25 -3 0 5 -11 18 -25z"/>
<path d="M9334 1738 c-4 -7 -3 -8 4 -4 12 7 16 16 8 16 -3 0 -8 -5 -12 -12z"/>
<path d="M9598 1743 c7 -3 16 -2 19 1 4 3 -2 6 -13 5 -11 0 -14 -3 -6 -6z"/>
<path d="M7058 1733 c12 -2 30 -2 40 0 9 3 -1 5 -23 4 -22 0 -30 -2 -17 -4z"/>
<path d="M7223 1733 c4 -3 10 -3 14 0 3 4 0 7 -7 7 -7 0 -10 -3 -7 -7z"/>
<path d="M10314 1565 c0 -93 2 -133 3 -88 2 45 2 122 0 170 -1 48 -3 12 -3 -82z"/>
<path d="M8259 1693 c-13 -16 -12 -17 4 -4 16 13 21 21 13 21 -2 0 -10 -8 -17 -17z"/>
<path d="M11264 1698 c-4 -7 -3 -8 4 -4 12 7 16 16 8 16 -3 0 -8 -5 -12 -12z"/>
<path d="M9785 1680 c3 -5 8 -10 11 -10 3 0 2 5 -1 10 -3 6 -8 10 -11 10 -3 0 -2 -4 1 -10z"/>
<path d="M8219 1653 c-13 -16 -12 -17 4 -4 16 13 21 21 13 21 -2 0 -10 -8 -17 -17z"/>
<path d="M11344 1638 c-4 -7 -3 -8 4 -4 7 4 12 9 12 12 0 8 -9 4 -16 -8z"/>
<path d="M7491 1614 c0 -11 3 -14 6 -6 3 7 2 16 -1 19 -3 4 -6 -2 -5 -13z"/>
<path d="M7393 1575 c0 -22 2 -30 4 -17 2 12 2 30 0 40 -3 9 -5 -1 -4 -23z"/>
<path d="M8144 1558 c-4 -7 -3 -8 4 -4 12 7 16 16 8 16 -3 0 -8 -5 -12 -12z"/>
<path d="M9850 1540 c0 -7 3 -10 7 -7 3 4 3 10 0 14 -4 3 -7 0 -7 -7z"/>
<path d="M7490 1530 c0 -7 3 -10 7 -7 3 4 3 10 0 14 -4 3 -7 0 -7 -7z"/>
<path d="M9951 1524 c0 -11 3 -14 6 -6 3 7 2 16 -1 19 -3 4 -6 -2 -5 -13z"/>
<path d="M8114 1518 c-4 -7 -3 -8 4 -4 12 7 16 16 8 16 -3 0 -8 -5 -12 -12z"/>
<path d="M9344 1245 c0 -154 2 -216 3 -137 2 79 2 205 0 280 -1 75 -3 11 -3 -143z"/>
<path d="M11114 1498 c-4 -7 -3 -8 4 -4 12 7 16 16 8 16 -3 0 -8 -5 -12 -12z"/>
<path d="M9245 1220 l0 -255 40 -1 40 -1 -37 4 -38 4 -3 252 -3 252 1 -255z"/>
<path d="M8620 1440 c0 -7 3 -10 7 -7 3 4 3 10 0 14 -4 3 -7 0 -7 -7z"/>
<path d="M9865 1208 l0 -243 40 -1 40 -1 -37 4 -38 4 -3 240 -3 239 1 -242z"/>
<path d="M11210 1446 c0 -2 8 -10 18 -17 15 -13 16 -12 3 4 -13 16 -21 21 -21 13z"/>
<path d="M7314 1428 c-4 -7 -3 -8 4 -4 12 7 16 16 8 16 -3 0 -8 -5 -12 -12z"/>
<path d="M2738 1403 c6 -2 18 -2 25 0 6 3 1 5 -13 5 -14 0 -19 -2 -12 -5z"/>
<path d="M3015 1400 c3 -5 8 -10 11 -10 3 0 2 5 -1 10 -3 6 -8 10 -11 10 -3 0 -2 -4 1 -10z"/>
<path d="M3392 1228 l3 -183 2 177 c3 174 4 177 26 181 19 4 18 4 -5 6 l-28 1 2 -182z"/>
<path d="M7409 1383 l-24 -28 28 24 c15 14 27 26 27 28 0 8 -8 1 -31 -24z"/>
<path d="M7863 1403 c9 -2 25 -2 35 0 9 3 1 5 -18 5 -19 0 -27 -2 -17 -5z"/>
<path d="M10998 1403 c12 -2 30 -2 40 0 9 3 -1 5 -23 4 -22 0 -30 -2 -17 -4z"/>
<path d="M3710 1375 c13 -14 26 -25 28 -25 3 0 -5 11 -18 25 -13 14 -26 25 -28 25 -3 0 5 -11 18 -25z"/>
<path d="M8125 1390 c3 -5 8 -10 11 -10 3 0 2 5 -1 10 -3 6 -8 10 -11 10 -3 0 -2 -4 1 -10z"/>
<path d="M7183 1373 c4 -3 10 -3 14 0 3 4 0 7 -7 7 -7 0 -10 -3 -7 -7z"/>
<path d="M7048 1363 c12 -2 30 -2 40 0 9 3 -1 5 -23 4 -22 0 -30 -2 -17 -4z"/>
<path d="M11285 1360 c3 -5 8 -10 11 -10 3 0 2 5 -1 10 -3 6 -8 10 -11 10 -3 0 -2 -4 1 -10z"/>
<path d="M3615 1340 c3 -5 8 -10 11 -10 3 0 2 5 -1 10 -3 6 -8 10 -11 10 -3 0 -2 -4 1 -10z"/>
<path d="M11185 1340 c3 -5 8 -10 11 -10 3 0 2 5 -1 10 -3 6 -8 10 -11 10 -3 0 -2 -4 1 -10z"/>
<path d="M10314 1307 c-2 -7 -3 -67 -2 -133 l3 -119 155 0 155 -1 -152 3 -153 4 0 124 0 124 148 4 147 3 -148 2 c-114 1 -149 -1 -153 -11z"/>
<path d="M3780 1240 c0 -7 3 -10 7 -7 3 4 3 10 0 14 -4 3 -7 0 -7 -7z"/>
<path d="M11231 1234 c0 -11 3 -14 6 -6 3 7 2 16 -1 19 -3 4 -6 -2 -5 -13z"/>
<path d="M11330 1240 c0 -7 3 -10 7 -7 3 4 3 10 0 14 -4 3 -7 0 -7 -7z"/>
<path d="M3681 1224 c0 -11 3 -14 6 -6 3 7 2 16 -1 19 -3 4 -6 -2 -5 -13z"/>
<path d="M3681 1184 c0 -11 3 -14 6 -6 3 7 2 16 -1 19 -3 4 -6 -2 -5 -13z"/>
<path d="M11230 1180 c0 -7 3 -10 7 -7 3 4 3 10 0 14 -4 3 -7 0 -7 -7z"/>
<path d="M11330 1180 c0 -7 3 -10 7 -7 3 4 3 10 0 14 -4 3 -7 0 -7 -7z"/>
<path d="M3010 1170 c0 -7 3 -10 7 -7 3 4 3 10 0 14 -4 3 -7 0 -7 -7z"/>
<path d="M3780 1160 c0 -7 3 -10 7 -7 3 4 3 10 0 14 -4 3 -7 0 -7 -7z"/>
<path d="M8059 1103 c-13 -16 -12 -17 4 -4 9 7 17 15 17 17 0 8 -8 3 -21 -13z"/>
<path d="M2974 1098 c-4 -7 -3 -8 4 -4 12 7 16 16 8 16 -3 0 -8 -5 -12 -12z"/>
<path d="M3644 1098 c-4 -7 -3 -8 4 -4 12 7 16 16 8 16 -3 0 -8 -5 -12 -12z"/>
<path d="M7320 1090 c0 -7 3 -10 7 -7 3 4 3 10 0 14 -4 3 -7 0 -7 -7z"/>
<path d="M11269 1043 l-24 -28 28 24 c15 14 27 26 27 28 0 8 -8 1 -31 -24z"/>
<path d="M3054 1038 l-19 -23 23 19 c12 11 22 21 22 23 0 8 -8 2 -26 -19z"/>
<path d="M2144 968 c-4 -7 -3 -8 4 -4 12 7 16 16 8 16 -3 0 -8 -5 -12 -12z"/>
<path d="M2698 963 c6 -2 18 -2 25 0 6 3 1 5 -13 5 -14 0 -19 -2 -12 -5z"/>
<path d="M2898 963 c7 -3 16 -2 19 1 4 3 -2 6 -13 5 -11 0 -14 -3 -6 -6z"/>
<path d="M3368 963 c6 -2 18 -2 25 0 6 3 1 5 -13 5 -14 0 -19 -2 -12 -5z"/>
<path d="M3853 963 c15 -2 37 -2 50 0 12 2 0 4 -28 4 -27 0 -38 -2 -22 -4z"/>
<path d="M4473 963 c15 -2 39 -2 55 0 15 2 2 4 -28 4 -30 0 -43 -2 -27 -4z"/>
<path d="M7768 963 c6 -2 18 -2 25 0 6 3 1 5 -13 5 -14 0 -19 -2 -12 -5z"/>
<path d="M10328 963 c56 -2 148 -2 205 0 56 1 10 3 -103 3 -113 0 -159 -2 -102 -3z"/>
<path d="M10903 963 c9 -2 23 -2 30 0 6 3 -1 5 -18 5 -16 0 -22 -2 -12 -5z"/>
<path d="M11103 963 c4 -3 10 -3 14 0 3 4 0 7 -7 7 -7 0 -10 -3 -7 -7z"/>
<path d="M6933 883 c4 -3 10 -3 14 0 3 4 0 7 -7 7 -7 0 -10 -3 -7 -7z"/>
<path d="M7223 883 c4 -3 10 -3 14 0 3 4 0 7 -7 7 -7 0 -10 -3 -7 -7z"/>
</g>


</svg>