<!DOCTYPE svg PUBLIC "-//W3C//DTD SVG 20010904//EN" "http://www.w3.org/TR/2001/REC-SVG-20010904/DTD/svg10.dtd">
<svg version="1.0" xmlns="http://www.w3.org/2000/svg" width="1721px" height="382px" viewBox="0 0 12000 2660" preserveAspectRatio="xMidYMid meet">
<g id="layer101" fill="#f1b705" stroke="none">
<path d="M5090 2251 c0 -22 8 -25 100 -41 36 -6 86 -16 113 -22 l47 -10 0 -375 0 -375 -335 -376 c-184 -206 -335 -379 -335 -384 0 -4 222 -8 493 -8 l492 0 74 -130 c67 -119 86 -142 104 -123 7 6 -59 134 -110 216 l-23 37 205 0 c113 0 205 3 205 8 0 4 -151 176 -335 382 l-334 375 -1 377 0 376 53 12 c28 6 84 16 123 21 82 13 99 21 91 43 -6 14 -41 16 -317 16 -300 0 -310 -1 -310 -19z m337 -943 c13 -12 23 -24 23 -27 0 -3 -22 -6 -49 -6 -50 0 -52 3 -23 38 19 22 21 21 49 -5z m-134 -154 c7 -63 40 -95 104 -101 l49 -5 77 -138 c42 -75 77 -140 77 -143 0 -4 -158 -7 -351 -7 -254 0 -350 3 -347 11 5 14 371 428 379 429 4 0 9 -21 12 -46z m435 -186 c92 -103 169 -193 170 -198 2 -6 -43 -10 -120 -10 l-123 0 -54 98 c-30 53 -69 122 -88 153 l-34 57 20 38 c12 21 21 50 21 63 0 24 0 24 20 6 11 -10 96 -103 188 -207z"/>
</g>
<g id="layer102" fill="#fdfdfd" stroke="none">
<path d="M6845 1763 c-60 -2 -120 -5 -132 -8 l-23 -5 0 -469 0 -468 31 -7 c60 -12 244 -6 296 9 110 33 165 101 165 205 0 68 -24 129 -72 184 -30 33 -32 39 -17 47 178 100 223 304 96 431 -69 69 -137 85 -344 81z m239 -123 c88 -59 101 -176 28 -253 -47 -50 -115 -77 -219 -89 -79 -9 -96 -9 -104 3 -10 16 -12 329 -3 354 6 14 23 16 134 13 115 -3 130 -5 164 -28z m-79 -462 c76 -66 103 -182 55 -233 -38 -40 -95 -56 -190 -53 l-85 3 -3 152 -3 152 48 4 c131 10 140 9 178 -25z"/>
<path d="M8093 1760 c-90 -19 -130 -53 -260 -226 l-85 -114 -84 0 -84 0 -2 168 -3 167 -47 3 -48 3 0 -434 0 -435 108 -6 c256 -16 382 66 382 249 0 82 -21 132 -85 203 l-44 48 88 112 c49 62 105 126 126 142 36 28 103 55 114 45 2 -3 79 -184 170 -403 154 -369 168 -397 192 -400 14 -2 30 3 36 10 5 7 61 135 123 283 61 149 141 337 176 420 36 83 60 153 55 158 -4 4 -28 7 -51 5 -48 -3 -36 17 -130 -210 l-32 -78 -173 0 -173 0 -45 108 c-25 59 -52 124 -60 145 -12 28 -22 37 -40 37 -14 0 -37 2 -53 4 -16 3 -48 1 -71 -4z m558 -427 c-62 -156 -109 -258 -117 -257 -7 1 -134 287 -134 301 0 2 61 3 135 3 l135 0 -19 -47z m-904 -4 c38 -14 81 -56 105 -103 31 -60 22 -155 -17 -196 -37 -39 -115 -62 -192 -58 l-58 3 -3 177 -2 177 32 4 c66 8 107 7 135 -4z"/>
<path d="M9287 1759 c-140 -33 -227 -146 -247 -320 -6 -46 -10 -189 -10 -316 l0 -233 50 0 50 0 0 253 c0 138 5 281 10 316 23 140 94 208 227 219 124 10 215 -34 260 -127 l28 -56 3 -302 3 -303 51 0 50 0 -4 303 c-4 267 -7 308 -24 354 -41 111 -108 176 -214 207 -57 17 -171 20 -233 5z"/>
<path d="M11272 1759 c-83 -16 -143 -70 -271 -242 l-72 -97 -84 0 -85 0 -2 168 -3 167 -45 0 -45 0 -3 -431 -2 -432 103 -7 c256 -17 388 67 390 250 1 73 -24 135 -82 198 -23 24 -41 48 -41 53 0 16 143 195 192 239 32 29 67 49 94 56 43 11 44 13 44 50 0 43 -4 45 -88 28z m-281 -477 c106 -116 80 -257 -56 -298 -50 -14 -131 -19 -159 -8 -14 5 -16 31 -16 179 l0 174 33 4 c17 3 59 4 91 3 58 -2 61 -4 107 -54z"/>
<path d="M770 1279 l0 -480 43 3 42 3 5 200 5 200 295 0 295 0 5 -200 5 -200 45 0 45 0 0 475 0 475 -47 3 -48 3 0 -231 0 -230 -297 2 -298 3 -3 228 -2 227 -45 0 -45 0 0 -481z"/>
<path d="M1700 1753 c0 -5 81 -201 179 -438 175 -419 180 -430 208 -433 23 -2 32 2 40 21 43 93 353 837 353 846 0 16 -85 14 -99 -2 -6 -8 -35 -72 -64 -143 l-54 -129 -174 -3 -175 -2 -54 132 c-29 73 -58 139 -63 146 -10 13 -97 17 -97 5z m520 -377 c0 -6 -122 -300 -126 -305 -2 -2 -7 -2 -10 2 -8 8 -124 286 -124 298 0 5 56 9 130 9 72 0 130 -2 130 -4z"/>
<path d="M2612 1328 l3 -433 105 -9 c192 -16 306 25 359 127 32 63 34 163 3 223 -48 94 -165 161 -299 171 l-73 6 -2 171 -3 171 -48 3 -47 3 2 -433z m251 -18 c99 -37 157 -127 138 -213 -21 -89 -73 -121 -201 -122 l-85 0 -3 178 -2 177 49 0 c28 0 74 -9 104 -20z"/>
<path d="M3290 1326 l0 -434 113 -6 c118 -7 193 2 253 30 45 22 110 96 118 135 10 54 7 138 -8 173 -44 105 -186 185 -328 186 l-48 0 0 159 c0 88 -3 166 -6 175 -4 11 -19 16 -50 16 l-44 0 0 -434z m255 -16 c82 -32 135 -99 135 -171 0 -73 -16 -106 -67 -136 -39 -23 -57 -26 -132 -27 l-86 -1 -5 173 c-3 95 -4 176 -2 180 3 11 119 -2 157 -18z"/>
<path d="M4147 1753 c-4 -3 -7 -74 -7 -158 l0 -151 -156 -265 c-86 -145 -158 -270 -161 -276 -4 -10 10 -13 50 -13 l55 0 128 220 c71 121 131 220 134 220 3 0 64 -99 134 -220 l129 -220 54 0 c53 0 53 0 42 23 -7 12 -79 136 -161 275 l-148 253 0 144 c0 79 -3 150 -6 159 -6 16 -73 23 -87 9z"/>
<path d="M10027 1753 c-4 -3 -7 -199 -7 -435 l0 -428 216 0 215 0 -3 43 -3 42 -162 3 -163 2 0 130 0 129 148 3 147 3 0 40 0 40 -148 3 -147 3 2 167 3 167 168 3 167 2 0 45 0 45 -213 0 c-118 0 -217 -3 -220 -7z"/>
</g>


</svg>